<?xml version="1.0" ?>
<!-- Uploaded to: SVG Repo, www.svgrepo.com, Generator: SVG Repo Mixer Tools -->
<svg width="800px" height="800px" viewBox="0 0 960 960" version="1.1" xml:space="preserve" xmlns="http://www.w3.org/2000/svg" xmlns:xlink="http://www.w3.org/1999/xlink">
<style type="text/css">
	.st0{display:none;}
	.st1{display:inline;opacity:0.93;}
	.st2{display:inline;}
	.st3{fill:none;stroke:#000000;stroke-width:15;stroke-linecap:round;stroke-linejoin:round;stroke-miterlimit:10;}
	.st4{display:inline;fill:none;stroke:#000000;stroke-width:15;stroke-linecap:round;stroke-linejoin:round;stroke-miterlimit:10;}
	.st5{fill:#222222;}
	.st6{fill:#DDEDE7;}
	.st7{fill:#1A1D3F;}
	.st8{fill:#ED644E;}
	.st9{fill:#E9B44D;}
	.st10{fill:#3DC5A1;}
	.st11{fill:#494EDF;}
</style>
<g class="st0" id="guide"/>
<g class="st0" id="sketch"/>
<g class="st0" id="stroke">
<path class="st4" d="M587.9,606c24-23.2,58.1-51.3,176.3-166.1c26.9-26.1,70.2-70.2,74.6-107.4c6-51-32.4-89.2-71.3-130.3   c-38.3-40.5-85.5-83.6-140.5-74.5c-36.7,6.1-85.3,53.9-112.1,79.5c-95.4,91.2-120,115.7-165.7,161.5c-17.3,17.3-32,48.8-28.2,73   s29.7,61.2,45.8,79.7c37.5,43.5,58.2,65.4,100.2,92.2C537.9,659,573,620.5,587.9,606z"/>
<path class="st4" d="M490.8,324.6c34-31.6,72.7-65.1,119.1-65.3c27.1-0.1,53.9,12.2,71.5,32.8s25.5,49,21.2,75.7   c-5.4,33.3-28.2,60.9-50.7,86.1c-58,65-107.8,96-152.4,92.7c-45.5-3.4-83.2-44.7-88.5-90C404.4,400.2,438.2,373.5,490.8,324.6z"/>
<path class="st4" d="M511.8,372.4c10.8,10.6,19.1,17.6,32.5,32c-20.7,7.9-47.7,20.9-77.5,33.7c-6.6,2.9-4.3,12.7,2.9,12.4   c50.8-2.3,86.9-5.1,145.3-10.2c5.5-0.5,7.9-7.2,4-11.1c-15.3-14.9-21.8-20.3-36.2-36.3c-0.7-0.8,35-25.5,60.9-43.2   c5.8-4,2-13-4.9-11.7c-35.5,7-92.7,18.1-123.6,23.4C510.1,362.3,508.1,368.7,511.8,372.4z"/>
<path class="st4" d="M366.3,521.1c-16.6,15.5-39.9,38.1-65.7,63.3c1.9,6.5,4.2,13.2,5.1,20c2.2,9.7-6.7,21.5-20.1,21.5   c-3.4,0-6.8-0.5-10.1-1.1c-8.6-1.6-17.4,1.2-23.7,7.4c-8.6,8.4-17.2,16.9-25.7,25.2c-5.8,5.7-9.3,13.2-10.3,21.2   c-2,16.3-11.1,31.1-28.3,36.5c-4,1.2-8.1,1.5-12.1,1.1c-5.5-0.5-10.9,1.3-14.9,5.1c-11.6,11.1-22,20.5-30,28.5   c-11,11-17,52.8,2.8,72.6c19.7,19.7,58.6,9.4,69.2-0.9c46.9-45.7,180.6-175.5,234.8-228.3"/>
<path class="st4" d="M658.7,204.3c33.1,33.9,66.3,67.9,99.5,101.8c5.7,5.8,13.1,12.1,20.8,9.8c9.1-2.7,11-15.1,7.9-24.1   c-4.1-11.6-13.2-20.6-22-29.2c-23-22.2-43.8-45.2-66.7-67.5c-6-5.8-14.7-14.5-23.1-16.9c-4.1-1.2-9.4-0.8-13.3,0.8   C644.3,186.2,654.9,200.5,658.7,204.3z"/>
<path class="st4" d="M139.8,815.7c70.7-68.8,161.5-156.2,224.2-218.5"/>
</g>
<g id="outline">
<path class="st5" d="M773,197.1c-43-45.4-90.6-86.1-147.2-76.7c-37.4,6.2-84.5,51.3-112.7,78.2l-3.4,3.3   c-95.5,91.3-120.5,116.2-165.8,161.6c-9.6,9.6-18,22.5-23.7,36.4c-4.4,10.8-9.2,27-6.7,43.1c3.9,24.6,27.2,58.5,42.5,77.4   c-14,13.2-33.1,31.7-60.6,58.5c-2,1.9-2.7,4.8-2,7.4c0.4,1.5,0.9,3,1.3,4.5c1.5,5,2.9,9.7,3.5,14.4c0,0.2,0.1,0.5,0.1,0.7   c0.5,2.2-0.3,5-2.2,7.4c-2.5,3.2-6.4,5-10.5,5c-2.4,0-5.1-0.3-8.8-1c-11-2-22.3,1.5-30.3,9.4L220.9,652   c-6.8,6.7-11.2,15.8-12.5,25.6c-0.9,7.2-4.9,24.5-23,30.2c-2.9,0.8-5.9,1.1-9.2,0.8c-7.7-0.7-15.3,1.9-20.8,7.2   c-5.1,4.9-9.9,9.4-14.5,13.7c-5.7,5.3-11.1,10.3-15.6,14.9c-7,7-11.9,22-12.3,38.1c-0.3,10.9,1.3,31.3,15.1,45.1   c9.7,9.7,23.2,13.4,36.6,13.4c17.7,0,35.1-6.5,43.1-14.2c23.6-23,68.3-66.5,115.6-112.4c42.9-41.6,87.1-84.6,114.5-111.3   c7.5,5.6,15.7,11.2,24.8,17.1c23.5,15,45.6,22.5,65.9,22.5c6.7,0,13.2-0.8,19.6-2.5c21.2-5.6,35-19.1,43.2-27.1   c0.6-0.5,1.1-1.1,1.6-1.6v0c7.3-7,15.5-14.5,26.8-24.9c25.2-23,67.4-61.5,149.5-141.2c33.5-32.5,72.5-74.6,76.9-111.9   c6.2-52.5-30.2-90.9-68.8-131.6L773,197.1z M313,703.6c-47.3,46-92,89.4-115.6,112.4c-7.6,7.4-35.5,14.9-52.8,5.3   c0.1-0.1,0.2-0.2,0.3-0.3c21.5-21,44.5-43.3,68.9-66.9c54.9-53.3,111.8-108.4,155.4-151.7c2.9-2.9,3-7.7,0-10.6   c-2.9-2.9-7.7-3-10.6,0c-43.6,43.3-100.4,98.4-155.3,151.6c-24.3,23.6-47.3,45.9-68.9,66.9c-0.2,0.2-0.3,0.3-0.4,0.5   c-4.2-7.2-6.3-17-6-27.9c0.4-13.4,4.4-24.3,7.9-27.9c4.3-4.3,9.6-9.3,15.2-14.5c4.7-4.4,9.5-8.9,14.7-13.8c2.3-2.2,5.6-3.4,9-3   c5.2,0.5,10.2,0,14.9-1.4c0,0,0.1,0,0.1,0c18.3-5.8,30.9-21.7,33.5-42.7c0.8-6.5,3.7-12.4,8.1-16.7l25.7-25.2   c4.5-4.5,10.9-6.5,17.1-5.3c3.1,0.6,7.2,1.2,11.5,1.2c8.8,0,16.9-3.9,22.3-10.6c4.7-5.9,6.6-13.1,5.2-19.7   c-0.8-5.8-2.4-11.2-4-16.5c0,0,0,0,0-0.1c25.4-24.8,43.3-42.1,56.6-54.7c23.1,26.6,40.1,45,60.4,61.7   C398.6,620.4,355.2,662.7,313,703.6z M831.4,331.6c-4.4,36.8-52.1,83.1-72.4,102.9C677,514.1,635,552.5,609.8,575.5   c-11.5,10.5-19.7,18-27.2,25.2c-0.5,0.5-1.1,1.1-1.7,1.6c-7.6,7.5-19.2,18.8-36.6,23.3c-21.2,5.5-45.9-0.6-73.5-18.2   c-10.7-6.9-20-13.3-28.5-19.9c-0.2-0.2-0.5-0.4-0.8-0.6c-23.5-18.4-41.5-38-69.2-70.2c-15.2-17.6-40.6-53.8-44-76   c-3.4-21.9,10.6-51,26.1-66.6c45.3-45.3,70.2-70.2,165.6-161.4l3.4-3.3c26.9-25.7,71.9-68.8,104.7-74.3c4.6-0.8,9.2-1.1,13.7-1.1   c44.1,0,83.7,34.9,120.2,73.4l4.5,4.7C802.7,250.2,836.8,286.1,831.4,331.6z M610.2,251.7c-0.1,0-0.3,0-0.4,0   c-47.9,0.2-87.6,33.4-124.1,67.4h0c-3.5,3.3-7,6.5-10.3,9.6c-47.2,43.6-78.4,72.4-71.8,128.8c5.9,50.7,47.8,93.1,95.4,96.6   c2.3,0.2,4.6,0.3,6.9,0.3c44.7,0,94.4-31.3,151.6-95.5c23.4-26.3,46.7-54.8,52.5-89.9c4.7-28.9-3.8-59.5-22.9-81.8   C668.1,264.9,639.4,251.7,610.2,251.7z M695.1,366.5c-5.1,31.1-26.9,57.7-48.9,82.3C592,509.7,546,539.4,505.9,539.4   c-2,0-3.9-0.1-5.9-0.2c-19.8-1.5-39.2-11-54.5-27c-15.1-15.7-24.7-35.7-27.1-56.4c-2.7-22.9,1.6-41.4,13.8-59.9   c11.8-17.9,30.1-34.8,53.3-56.2c3.4-3.1,6.8-6.3,10.4-9.6l0,0c35.8-33.3,71.4-63.2,114-63.3c0.1,0,0.2,0,0.3,0   c24.8,0,49.3,11.3,65.4,30.2C691.8,315.9,699.1,341.9,695.1,366.5z M637.4,330.7c-32.6,6.4-91.9,18-123.4,23.3   c-5.2,0.9-9.4,4.6-11,9.6c-1.6,5-0.2,10.5,3.6,14.2c0,0,0,0,0,0c3.4,3.4,6.6,6.4,9.7,9.3c4.8,4.6,9.5,8.9,14.9,14.5   c-10.8,4.5-22.9,9.9-35.5,15.6c-10.2,4.6-20.8,9.4-31.9,14.1c-6.3,2.7-9.6,9.3-8.1,16c1.5,6.5,7,10.8,13.6,10.8c0.2,0,0.5,0,0.7,0   c50.9-2.3,87.5-5.2,145.7-10.2c5.5-0.5,10.1-4,11.9-9.2c1.9-5.2,0.6-10.8-3.4-14.7c-4-3.9-7.5-7.3-10.6-10.2   c-7-6.7-12.5-11.9-19.9-19.9c6.7-4.9,21.5-15.4,54.3-37.9c5.5-3.8,7.6-10.8,5-16.9C650.4,332.8,644,329.4,637.4,330.7z    M599.5,371.3c-6.5,4.6-11.6,8.2-15.1,10.8c-6.4,4.7-8.5,6.3-9,10c-0.3,2.1,0.4,4.3,1.9,5.9c10.8,12,17.2,18.1,26,26.6   c2.6,2.5,5.6,5.3,8.9,8.5c-54.5,4.7-90.1,7.5-137.2,9.7c9.3-4.1,18.2-8.1,26.9-12c16.6-7.5,32.4-14.5,45.1-19.4   c2.3-0.9,4.1-2.9,4.6-5.3c0.6-2.4-0.1-5-1.8-6.8c-9.4-10.1-16.4-16.7-23.2-23.1c-2.6-2.5-5.3-5-8.1-7.7   c30.5-5.2,84.2-15.6,116.9-22.1C620.8,356.4,608.7,364.8,599.5,371.3z M736.2,223c-10.6-10.9-21.5-22.2-32.8-33.2l-0.6-0.6   c-6.6-6.5-15.7-15.3-25.6-18.1c-5.6-1.6-12.7-1.2-18.2,1c-9.9,4-13.2,10.2-14.1,14.8c-2.3,11,6.6,20.8,8.4,22.6l99.5,101.8   c3.6,3.7,12.3,12.6,22.9,12.6c1.7,0,3.5-0.2,5.4-0.8c5.1-1.5,9.2-4.9,11.8-10c3.5-6.7,3.9-15.9,1.1-23.8   c-4.7-13.5-15.3-23.8-23.9-32.1C758.4,246.1,747.1,234.4,736.2,223z M779.8,294.4c1.4,4,1.3,8.9-0.3,12c-0.9,1.7-1.9,2.2-2.6,2.4   c-4.4,1.3-11.2-5.6-13.4-7.9L664,199.1c-2.5-2.6-4.9-6.9-4.5-9.1c0.4-1.9,3.7-3.4,5-3.9c2.4-1,6.1-1.2,8.5-0.5   c6.3,1.8,14.1,9.4,19.2,14.4l0.6,0.6c11.1,10.8,22,22,32.4,32.9c11,11.4,22.4,23.2,34.2,34.6C767.4,275.7,776.2,284.2,779.8,294.4z   "/>
</g>
<g class="st0" id="flat">
<g class="st2">
<path class="st6" d="M300.6,584.3c1.9,6.5,4.2,13.2,5.1,20c2.2,9.7-6.7,21.5-20.1,21.5c-3.4,0-6.8-0.5-10.1-1.1    c-8.6-1.6-17.4,1.2-23.7,7.4c-8.6,8.4-17.2,16.9-25.7,25.2c-5.8,5.7-9.3,13.2-10.3,21.2c-2,16.3-11.1,31.1-28.3,36.5    c-4,1.2-8.1,1.5-12.1,1.1c-5.5-0.5-10.9,1.3-14.9,5.1c-11.6,11.1-22,20.5-30,28.5c-11,11-17,52.8,2.8,72.6    c19.7,19.7,58.6,9.4,69.2-0.9c46.9-45.7,180.6-175.5,234.8-228.3l-71.2-72C349.7,536.6,326.4,559.2,300.6,584.3z"/>
<path class="st9" d="M638.9,338.1c-35.5,7-92.7,18.1-123.6,23.4c-5.2,0.9-7.2,7.3-3.4,11c10.8,10.6,19.1,17.6,32.5,32    c-20.7,7.9-47.7,20.9-77.5,33.7c-6.6,2.9-4.3,12.7,2.9,12.4c50.8-2.3,86.9-5.1,145.3-10.2c5.5-0.5,7.9-7.2,4-11.1    c-15.3-14.9-21.8-20.3-36.2-36.3c-0.7-0.8,35-25.5,60.9-43.2C649.6,345.8,645.8,336.7,638.9,338.1z"/>
<path class="st11" d="M627,127.8c-36.7,6.1-85.3,53.9-112.1,79.5c-95.4,91.2-120,115.7-165.7,161.5c-17.3,17.3-32,48.8-28.2,73    c3.8,24.2,29.7,61.2,45.8,79.7c37.5,43.5,58.2,65.4,100.2,92.2c71,45.3,106.1,6.7,121-7.7c24-23.2,58.1-51.3,176.3-166.1    c26.9-26.1,70.2-70.2,74.6-107.4c6-51-32.4-89.2-71.3-130.3C729.2,161.8,682,118.6,627,127.8z M702.5,367.8    c-5.4,33.3-28.2,60.9-50.7,86.1c-58,65-107.8,96-152.4,92.7c-45.5-3.4-83.2-44.7-88.5-90c-6.6-56.5,27.2-83.2,79.8-132.1    c34-31.6,72.7-65.1,119.1-65.3c27.1-0.1,53.9,12.2,71.5,32.8S706.9,341.1,702.5,367.8z M786.9,291.9c3.1,8.9,1.2,21.4-7.9,24.1    c-7.8,2.3-15.2-4-20.8-9.8c-33.1-33.9-66.3-67.9-99.4-101.8c-3.8-3.9-14.4-18.1,3.1-25.2c3.9-1.6,9.2-1.9,13.3-0.8    c8.4,2.4,17.1,11.1,23.1,16.9c22.9,22.3,43.7,45.3,66.7,67.5C773.7,271.3,782.8,280.3,786.9,291.9z"/>
<path class="st7" d="M610.2,251.7c-0.1,0-0.3,0-0.4,0c-47.9,0.2-87.6,33.4-124.1,67.4h0c-3.5,3.3-7,6.5-10.3,9.6    c-47.2,43.6-78.4,72.4-71.8,128.8c5.9,50.7,47.8,93.1,95.4,96.6c2.3,0.2,4.6,0.3,6.9,0.3c44.7,0,94.4-31.3,151.6-95.5    c23.4-26.3,46.7-54.8,52.5-89.9c4.7-28.9-3.8-59.5-22.9-81.8C668.1,264.9,639.4,251.7,610.2,251.7z M695.1,366.5    c-5.1,31.1-26.9,57.7-48.9,82.3C592,509.7,546,539.4,505.9,539.4c-2,0-3.9-0.1-5.9-0.2c-19.8-1.5-39.2-11-54.5-27    c-15.1-15.7-24.7-35.7-27.1-56.4c-2.7-22.9,1.6-41.4,13.8-59.9c11.8-17.9,30.1-34.8,53.3-56.2c3.4-3.1,6.8-6.3,10.4-9.6l0,0    c35.8-33.3,71.4-63.2,114-63.3c0.1,0,0.2,0,0.3,0c24.8,0,49.3,11.3,65.4,30.2C691.8,315.9,699.1,341.9,695.1,366.5z"/>
<path class="st7" d="M361.2,515.6c-14.4,13.5-34.7,33.1-65.8,63.4c-2,1.9-2.7,4.8-2,7.4c0.4,1.5,0.9,3,1.3,4.5    c1.5,5,2.9,9.7,3.5,14.4c0,0.2,0.1,0.5,0.1,0.7c0.5,2.2-0.3,5-2.2,7.4c-2.5,3.2-6.4,5-10.5,5c-2.4,0-5.1-0.3-8.8-1    c-11-2-22.3,1.5-30.3,9.4L220.9,652c-6.8,6.7-11.2,15.8-12.5,25.6c-0.9,7.2-4.9,24.5-23,30.2c-2.9,0.8-5.9,1.1-9.2,0.8    c-7.7-0.7-15.3,1.9-20.8,7.2c-5.1,4.9-9.9,9.4-14.5,13.7c-5.7,5.3-11.1,10.3-15.6,14.9c-2.9,2.9-2.9,7.7,0,10.6    c1.5,1.5,3.4,2.2,5.3,2.2c1.9,0,3.8-0.7,5.3-2.2c4.3-4.3,9.6-9.3,15.2-14.5c4.7-4.4,9.5-8.9,14.7-13.8c2.3-2.2,5.6-3.4,9-3    c5.2,0.5,10.2,0,14.9-1.4c0,0,0.1,0,0.1,0c18.3-5.8,30.9-21.7,33.5-42.7c0.8-6.5,3.7-12.4,8.1-16.7l25.7-25.2    c4.5-4.5,10.9-6.5,17.1-5.3c3.1,0.6,7.2,1.2,11.5,1.2c8.8,0,16.9-3.9,22.3-10.6c4.7-5.9,6.6-13.1,5.2-19.7    c-0.8-5.8-2.4-11.2-4-16.5c0,0,0,0,0-0.1c29.1-28.5,48.4-47,62.3-60c3-2.8,3.2-7.6,0.4-10.6C368.9,512.9,364.2,512.8,361.2,515.6z    "/>
<path class="st7" d="M369.3,602.4c2.9-2.9,3-7.7,0-10.6c-2.9-2.9-7.7-3-10.6,0c-49.4,49-120,117.7-182.3,178.3    c-16.8,16.4-33.1,32.2-48.1,46.8c-4.4,3.7-4,7.2-0.1,10.7c10.5,10.5,24.1,14.7,37.4,14.7c16.7,0,32.9-6.5,42.2-15.4l5.8-5.5    c14.9-14.3,37.4-35.8,58.6-57.1c2.9-2.9,2.9-7.7,0-10.6c-2.9-2.9-7.7-2.9-10.6,0c-21.1,21.1-43.5,42.6-58.4,56.9l-5.8,5.6    c-10.9,10.4-35.7,16-52.6,5.7c13.3-12.9,27.4-26.7,42-40.8C249.2,720.2,319.8,651.5,369.3,602.4z"/>
<path class="st7" d="M770.1,257.3c-11.6-11.3-23-23-33.9-34.3c-10.6-10.9-21.5-22.2-32.8-33.2l-0.6-0.6    c-6.6-6.5-15.7-15.3-25.6-18.1c-5.6-1.6-12.7-1.2-18.2,1c-9.9,4-13.2,10.2-14.1,14.8c-2.3,11,6.6,20.8,8.4,22.6l99.5,101.8    c3.6,3.7,12.3,12.6,22.9,12.6c1.7,0,3.5-0.2,5.4-0.8c5.1-1.5,9.2-4.9,11.8-10c3.5-6.7,3.9-15.9,1.1-23.8    C789.2,275.9,778.6,265.6,770.1,257.3z M779.5,306.4c-0.9,1.7-1.9,2.2-2.6,2.4c-4.4,1.3-11.2-5.6-13.4-7.9L664,199.1    c-2.5-2.6-4.9-6.9-4.5-9.1c0.4-1.9,3.7-3.4,5-3.9c2.4-1,6.1-1.2,8.5-0.5c6.3,1.8,14.1,9.4,19.2,14.4l0.6,0.6    c11.1,10.8,22,22,32.4,32.9c11,11.4,22.4,23.2,34.2,34.6c7.8,7.5,16.6,16.1,20.1,26.2C781.2,298.4,781.1,303.3,779.5,306.4z"/>
</g>
</g>
<g class="st0" id="colored_x5F_line">
<g class="st2">
<path class="st9" d="M627,127.8c-36.7,6.1-85.3,53.9-112.1,79.5c-95.4,91.2-120,115.7-165.7,161.5c-17.3,17.3-32,48.8-28.2,73    c3.8,24.2,29.7,61.2,45.8,79.7c37.5,43.5,58.2,65.4,100.2,92.2c71,45.3,106.1,6.7,121-7.7c24-23.2,58.1-51.3,176.3-166.1    c26.9-26.1,70.2-70.2,74.6-107.4c6-51-32.4-89.2-71.3-130.3C729.2,161.8,682,118.6,627,127.8z M702.5,367.8    c-5.4,33.3-28.2,60.9-50.7,86.1c-58,65-107.8,96-152.4,92.7c-45.5-3.4-83.2-44.7-88.5-90c-6.6-56.5,27.2-83.2,79.8-132.1    c34-31.6,72.7-65.1,119.1-65.3c27.1-0.1,53.9,12.2,71.5,32.8S706.9,341.1,702.5,367.8z M786.9,291.9c3.1,8.9,1.2,21.4-7.9,24.1    c-7.8,2.3-15.2-4-20.8-9.8c-33.1-33.9-66.3-67.9-99.4-101.8c-3.8-3.9-14.4-18.1,3.1-25.2c3.9-1.6,9.2-1.9,13.3-0.8    c8.4,2.4,17.1,11.1,23.1,16.9c22.9,22.3,43.7,45.3,66.7,67.5C773.7,271.3,782.8,280.3,786.9,291.9z"/>
<path class="st9" d="M638.9,338.1c-35.5,7-92.7,18.1-123.6,23.4c-5.2,0.9-7.2,7.3-3.4,11c10.8,10.6,19.1,17.6,32.5,32    c-20.7,7.9-47.7,20.9-77.5,33.7c-6.6,2.9-4.3,12.7,2.9,12.4c50.8-2.3,86.9-5.1,145.3-10.2c5.5-0.5,7.9-7.2,4-11.1    c-15.3-14.9-21.8-20.3-36.2-36.3c-0.7-0.8,35-25.5,60.9-43.2C649.6,345.8,645.8,336.7,638.9,338.1z"/>
<path class="st5" d="M610.2,251.7c-0.1,0-0.3,0-0.4,0c-47.9,0.2-87.6,33.4-124.1,67.4h0c-3.5,3.3-7,6.5-10.3,9.6    c-47.2,43.6-78.4,72.4-71.8,128.8c5.9,50.7,47.8,93.1,95.4,96.6c2.3,0.2,4.6,0.3,6.9,0.3c44.7,0,94.4-31.3,151.6-95.5    c23.4-26.3,46.7-54.8,52.5-89.9c4.7-28.9-3.8-59.5-22.9-81.8C668.1,264.9,639.4,251.7,610.2,251.7z M695.1,366.5    c-5.1,31.1-26.9,57.7-48.9,82.3C592,509.7,546,539.4,505.9,539.4c-2,0-3.9-0.1-5.9-0.2c-19.8-1.5-39.2-11-54.5-27    c-15.1-15.7-24.7-35.7-27.1-56.4c-2.7-22.9,1.6-41.4,13.8-59.9c11.8-17.9,30.1-34.8,53.3-56.2c3.4-3.1,6.8-6.3,10.4-9.6l0,0    c35.8-33.3,71.4-63.2,114-63.3c0.1,0,0.2,0,0.3,0c24.8,0,49.3,11.3,65.4,30.2C691.8,315.9,699.1,341.9,695.1,366.5z"/>
<path class="st5" d="M432.2,587.7c-26.9,26.2-73.8,71.8-119.2,115.9c-47.3,46-92,89.4-115.6,112.4c-7.5,7.3-35.2,14.8-52.4,5.5    c13.2-12.9,27.3-26.6,41.8-40.7c62.3-60.6,133-129.3,182.4-178.4c2.9-2.9,3-7.7,0-10.6c-2.9-2.9-7.7-3-10.6,0    c-49.4,49-120,117.7-182.3,178.3c-14.6,14.2-28.8,28-42.1,40.9c-4.3-7.3-6.5-17.1-6.2-28.2c0.4-13.4,4.4-24.3,7.9-27.9    c4.3-4.3,9.6-9.3,15.2-14.5c4.7-4.4,9.5-8.9,14.7-13.8c2.3-2.2,5.6-3.4,9-3c5.2,0.5,10.2,0,14.9-1.4c0,0,0.1,0,0.1,0    c18.3-5.8,30.9-21.7,33.5-42.7c0.8-6.5,3.7-12.4,8.1-16.7l25.7-25.2c4.5-4.5,10.9-6.5,17.1-5.3c3.1,0.6,7.2,1.2,11.5,1.2    c8.8,0,16.9-3.9,22.3-10.6c4.7-5.9,6.6-13.1,5.2-19.7c-0.8-5.8-2.4-11.2-4-16.5c0,0,0,0,0-0.1c29.1-28.5,48.4-47,62.3-60    c3-2.8,3.2-7.6,0.4-10.6c-2.8-3-7.6-3.2-10.6-0.4c-14.4,13.5-34.7,33.1-65.8,63.4c-2,1.9-2.7,4.8-2,7.4c0.4,1.5,0.9,3,1.3,4.5    c1.5,5,2.9,9.7,3.5,14.4c0,0.2,0.1,0.5,0.1,0.7c0.5,2.2-0.3,5-2.2,7.4c-2.5,3.2-6.4,5-10.5,5c-2.4,0-5.1-0.3-8.8-1    c-11-2-22.3,1.5-30.3,9.4L220.9,652c-6.8,6.7-11.2,15.8-12.5,25.6c-0.9,7.2-4.9,24.5-23,30.2c-2.9,0.8-5.9,1.1-9.2,0.8    c-7.7-0.7-15.3,1.9-20.8,7.2c-5.1,4.9-9.9,9.4-14.5,13.7c-5.7,5.3-11.1,10.3-15.6,14.9c-7,7-11.9,22-12.3,38.1    c-0.3,10.9,1.2,31.2,15,45c0,0,0,0,0,0c0,0,0,0,0,0c0,0,0,0,0.1,0.1c9.7,9.7,23.2,13.4,36.6,13.4c17.7,0,35.1-6.5,43.1-14.2    c23.6-23,68.3-66.5,115.6-112.4c45.4-44.1,92.3-89.7,119.2-115.9c3-2.9,3-7.6,0.1-10.6C439.9,584.9,435.2,584.8,432.2,587.7z"/>
<path class="st5" d="M770.1,257.3c-11.6-11.3-23-23-33.9-34.3c-10.6-10.9-21.5-22.2-32.8-33.2l-0.6-0.6    c-6.6-6.5-15.7-15.3-25.6-18.1c-5.6-1.6-12.7-1.2-18.2,1c-9.9,4-13.2,10.2-14.1,14.8c-2.3,11,6.6,20.8,8.4,22.6l99.5,101.8    c3.6,3.7,12.3,12.6,22.9,12.6c1.7,0,3.5-0.2,5.4-0.8c5.1-1.5,9.2-4.9,11.8-10c3.5-6.7,3.9-15.9,1.1-23.8    C789.2,275.9,778.6,265.6,770.1,257.3z M779.5,306.4c-0.9,1.7-1.9,2.2-2.6,2.4c-4.4,1.3-11.2-5.6-13.4-7.9L664,199.1    c-2.5-2.6-4.9-6.9-4.5-9.1c0.4-1.9,3.7-3.4,5-3.9c2.4-1,6.1-1.2,8.5-0.5c6.3,1.8,14.1,9.4,19.2,14.4l0.6,0.6    c11.1,10.8,22,22,32.4,32.9c11,11.4,22.4,23.2,34.2,34.6c7.8,7.5,16.6,16.1,20.1,26.2C781.2,298.4,781.1,303.3,779.5,306.4z"/>
</g>
</g>
</svg>