<svg width="56" height="56" viewBox="0 0 56 56" fill="none" xmlns="http://www.w3.org/2000/svg">
<g id="Frame 1618873108">
<g clip-path="url(#clip0_3592_31673)">
<path id="Vector" d="M37.2899 17.0688H18.4278C17.5636 17.0688 16.8613 17.7809 16.8613 18.655V37.4827C16.8613 38.3568 17.5636 39.0688 18.4278 39.0688H37.2899C38.1542 39.0688 38.8613 38.3568 38.8613 37.4827V18.655C38.8613 17.7809 38.1542 17.0688 37.2899 17.0688ZM23.5104 35.926H20.2497V25.4269H23.5153V35.926H23.5104ZM21.8801 23.993C20.8341 23.993 19.9895 23.1434 19.9895 22.1023C19.9895 21.0613 20.8341 20.2117 21.8801 20.2117C22.9211 20.2117 23.7707 21.0613 23.7707 22.1023C23.7707 23.1483 22.9261 23.993 21.8801 23.993ZM35.7332 35.926H32.4725V30.8188C32.4725 29.601 32.4479 28.0345 30.7783 28.0345C29.0792 28.0345 28.8189 29.3604 28.8189 30.7305V35.926H25.5582V25.4269H28.6863V26.8608H28.7305C29.1676 26.0358 30.2332 25.1666 31.8194 25.1666C35.1194 25.1666 35.7332 27.3421 35.7332 30.1706V35.926Z" fill="white"/>
</g>
</g>
<defs>
<clipPath id="clip0_3592_31673">
<rect y="0.0688477" width="55.8621" height="55.8621" rx="27.931" fill="white"/>
</clipPath>
</defs>
</svg>
