<svg width="57" height="56" viewBox="0 0 57 56" fill="none" xmlns="http://www.w3.org/2000/svg">
<g id="Frame 1618873111">
<g clip-path="url(#clip0_3592_31687)">
<g id="Group 1410138635">
<path id="Vector" opacity="0.6" fill-rule="evenodd" clip-rule="evenodd" d="M16.6862 35.1748C16.5259 35.14 16.2953 35.0163 16.1193 34.877C14.5087 33.3531 16.5611 31.5663 18.9341 30.5336V27.5903C19.501 27.9229 19.7825 27.9577 19.8177 28.0119L21.6238 26.225L21.0218 24.7166C26.3347 22.8949 28.4771 22.1948 32.8009 21.4754L32.0229 20.7754L33.2974 20.0405C36.2021 21.0036 38.9114 21.2511 38.4501 23.6491C38.5752 22.0363 36.5383 21.4058 33.3834 20.5317L32.797 20.8992L33.9464 21.8467C28.7742 22.7402 25.588 23.7226 21.8154 25.0183L22.3119 26.3487L20.4354 28.1898C20.7559 28.2787 24.0477 29.381 27.5036 26.9985C27.5193 26.9792 27.574 26.9637 27.574 26.9289C27.4489 26.7549 27.2378 26.5963 26.9524 26.3333C27.9454 26.4029 28.5983 27.2809 28.4771 28.1898H28.0158C28.0705 27.9113 28.0001 27.5748 27.875 27.3659C25.2362 29.2921 22.136 29.5744 19.4971 28.6616V30.9397C18.2031 31.3767 15.92 32.7807 15.9356 34.1306C16.0255 34.7803 16.3617 35.0047 16.6784 35.1826L16.6862 35.1748Z" fill="white"/>
<path id="Vector_2" fill-rule="evenodd" clip-rule="evenodd" d="M27.4723 34.5752C24.6223 36.0295 21.8935 37.1704 17.644 37.3252C12.1707 37.2207 11.3224 33.6122 13.9261 29.845C16.3695 26.0431 20.2672 22.5892 26.4832 20.4349C28.2503 19.8238 30.9243 19.089 33.4576 19.0696C37.1247 19.0348 40.6823 20.1719 40.4516 23.6258C40.3265 26.2906 36.4484 30.0577 34.4115 32.7535C33.528 33.9293 33.3834 34.6796 34.8729 34.6294C40.2757 34.2813 45.2172 32.4209 49.7483 30.4948C46.7028 32.5447 30.7249 40.3768 30.6389 35.0316C30.6585 34.3664 30.9947 33.647 31.5068 32.8928C32.019 32.1386 32.7305 31.3341 33.4537 30.5103C34.5327 29.2842 37.2263 26.3409 38.1294 24.5695C39.6541 21.2394 36.2333 21.0654 33.2934 20.0327L32.019 20.7675L32.7813 21.4676C28.477 22.187 26.3346 22.887 21.0217 24.7087L21.6238 26.2171L19.8176 28.004C19.7824 27.9499 19.497 27.915 18.9341 27.5824V30.5257C16.561 31.5584 14.5047 33.3453 16.1193 34.8692C16.2952 35.0084 16.5259 35.1322 16.6861 35.167H16.6705C19.5909 36.7953 27.4918 34.5714 27.4723 34.5714V34.5752Z" fill="white"/>
</g>
</g>
</g>
<defs>
<clipPath id="clip0_3592_31687">
<rect x="0.510742" y="0.0688477" width="55.8621" height="55.8621" rx="27.931" fill="white"/>
</clipPath>
</defs>
</svg>
