<svg width="57" height="56" viewBox="0 0 57 56" fill="none" xmlns="http://www.w3.org/2000/svg">
<g id="Frame 1618873109">
<g clip-path="url(#clip0_3592_31684)">
<path id="Vector" d="M41.2008 21.8164C40.9018 20.7078 40.0208 19.8347 38.9022 19.5384C36.8746 19 28.7441 19 28.7441 19C28.7441 19 20.6138 19 18.5861 19.5384C17.4675 19.8347 16.5865 20.7078 16.2874 21.8164C15.7441 23.8258 15.7441 28.0182 15.7441 28.0182C15.7441 28.0182 15.7441 32.2106 16.2874 34.22C16.5865 35.3286 17.4675 36.1653 18.5861 36.4616C20.6138 37 28.7441 37 28.7441 37C28.7441 37 36.8745 37 38.9022 36.4616C40.0208 36.1653 40.9018 35.3286 41.2008 34.22C41.7441 32.2106 41.7441 28.0182 41.7441 28.0182C41.7441 28.0182 41.7441 23.8258 41.2008 21.8164ZM26.085 31.8246V24.2118L32.8805 28.0183L26.085 31.8246Z" fill="white"/>
</g>
</g>
<defs>
<clipPath id="clip0_3592_31684">
<rect x="0.882812" y="0.0688477" width="55.8621" height="55.8621" rx="27.931" fill="white"/>
</clipPath>
</defs>
</svg>
